<?xml version="1.0" encoding="UTF-8" standalone="no"?>
<svg
   xmlns:dc="http://purl.org/dc/elements/1.1/"
   xmlns:cc="http://creativecommons.org/ns#"
   xmlns:rdf="http://www.w3.org/1999/02/22-rdf-syntax-ns#"
   xmlns:svg="http://www.w3.org/2000/svg"
   xmlns="http://www.w3.org/2000/svg"
   xmlns:sodipodi="http://sodipodi.sourceforge.net/DTD/sodipodi-0.dtd"
   xmlns:inkscape="http://www.inkscape.org/namespaces/inkscape"
   viewBox="0 0 240 240.00001"
   version="1.1"
   id="svg11"
   sodipodi:docname="logo.svg"
   inkscape:version="1.0.2 (e86c870879, 2021-01-15)"
   width="240"
   height="240">
  <metadata
     id="metadata15">
    <rdf:RDF>
      <cc:Work
         rdf:about="">
        <dc:format>image/svg+xml</dc:format>
        <dc:type
           rdf:resource="http://purl.org/dc/dcmitype/StillImage" />
        <dc:title></dc:title>
      </cc:Work>
    </rdf:RDF>
  </metadata>
  <sodipodi:namedview
     pagecolor="#ffffff"
     bordercolor="#666666"
     borderopacity="1"
     objecttolerance="10"
     gridtolerance="10"
     guidetolerance="10"
     inkscape:pageopacity="0"
     inkscape:pageshadow="2"
     inkscape:window-width="2560"
     inkscape:window-height="1385"
     id="namedview13"
     showgrid="false"
     inkscape:zoom="2.9245351"
     inkscape:cx="28.661119"
     inkscape:cy="171.60792"
     inkscape:window-x="0"
     inkscape:window-y="0"
     inkscape:window-maximized="1"
     inkscape:current-layer="svg11"
     inkscape:document-rotation="0" />
  <defs
     id="defs4">
    <style
       id="style2">.cls-1{fill:#12214d;}</style>
  </defs>
  <g
     id="Layer_2"
     data-name="Layer 2"
     transform="matrix(2.3,0,0,2.3,4.9458164,4.1283469)">
    <g
       id="Layer_1-2"
       data-name="Layer 1">
      <g
         id="qb_logomark"
         data-name="qb logomark">
        <path
           class="cls-1"
           d="M 87.56,82.28 90,78.78 a 49.46,49.46 0 1 0 -15.88,14.5 l 3.7,-2.13 1.64,1.7 A 18.52,18.52 0 0 0 100,97.23 Z M 49.59,88 A 38.07,38.07 0 1 1 87.4,49.92 38,38 0 0 1 49.59,88 Z"
           id="path6" />
      </g>
    </g>
  </g>
  <g
     id="g914"
     transform="matrix(8.3237416,0,0,8.3237416,-110.84509,-101.1253)">
    <g
       style="fill:#a8b8c2;fill-opacity:1"
       id="g94"
       transform="matrix(1.3333333,0,0,1.3333333,-36.047916,-38.767719)">
      <g
         id="use92"
         transform="translate(42,53.5)">
        <path
           style="stroke:none"
           d="M 1.984375,-8.515625 C 2.628906,-9.171875 3.410156,-9.5 4.328125,-9.5 c 0.925781,0 1.710937,0.328125 2.359375,0.984375 0.65625,0.648437 0.984375,1.429687 0.984375,2.34375 v 3.328125 h -1.34375 v -3.328125 c 0,-0.539063 -0.199219,-1.003906 -0.59375,-1.390625 -0.386719,-0.394531 -0.855469,-0.59375 -1.40625,-0.59375 -0.542969,0 -1.011719,0.199219 -1.40625,0.59375 C 2.535156,-7.175781 2.34375,-6.710938 2.34375,-6.171875 V -2.84375 H 1.015625 v -3.328125 c 0,-0.914063 0.320313,-1.695313 0.96875,-2.34375 z m 0,0"
           id="path884" />
      </g>
    </g>
    <g
       style="fill:#ffab30;fill-opacity:1"
       id="g98"
       transform="matrix(1.3333333,0,0,1.3333333,-36.047916,-38.767719)">
      <g
         id="use96"
         transform="translate(42,53.5)">
        <path
           style="stroke:none"
           d="m 8.671875,0.171875 c 0,0.375 -0.136719,0.6875 -0.40625,0.9375 C 8.003906,1.367188 7.695312,1.5 7.34375,1.5 h -6 C 0.96875,1.5 0.648438,1.367188 0.390625,1.109375 0.128906,0.859375 0,0.546875 0,0.171875 V -3.84375 C 0,-4.207031 0.128906,-4.515625 0.390625,-4.765625 0.648438,-5.023438 0.96875,-5.15625 1.34375,-5.15625 h 6 c 0.351562,0 0.660156,0.132812 0.921875,0.390625 0.269531,0.25 0.40625,0.558594 0.40625,0.921875 z m 0,0"
           id="path888" />
      </g>
    </g>
    <g
       style="fill:#bf684c;fill-opacity:1"
       id="g102"
       transform="matrix(1.3333333,0,0,1.3333333,-36.047916,-38.767719)">
      <g
         id="use100"
         transform="translate(42,53.5)">
        <path
           style="stroke:none"
           d="m 11.671875,-7.5 c 0,0.636719 -0.1875,1.214844 -0.5625,1.734375 -0.375,0.511719 -0.859375,0.875 -1.453125,1.09375 v 1.5 c 0,0.25 -0.109375,0.4375 -0.328125,0.5625 v 0.78125 c 0.09375,0 0.171875,0.03125 0.234375,0.09375 0.0625,0.0625 0.09375,0.140625 0.09375,0.234375 v 0.65625 c 0,0.09375 -0.03125,0.179688 -0.09375,0.25 C 9.5,-0.53125 9.421875,-0.5 9.328125,-0.5 v 0.328125 C 9.421875,-0.171875 9.5,-0.132812 9.5625,-0.0625 9.625,0 9.65625,0.078125 9.65625,0.171875 V 0.5 C 9.65625,0.59375 9.625,0.671875 9.5625,0.734375 9.5,0.804688 9.421875,0.84375 9.328125,0.84375 c 0,0 0,-0.007812 0,-0.015625 C 9.285156,1.023438 9.1875,1.1875 9.03125,1.3125 8.875,1.4375 8.703125,1.5 8.515625,1.5 8.359375,1.5 8.21875,1.457031 8.09375,1.375 7.96875,1.300781 7.863281,1.203125 7.78125,1.078125 7.707031,0.953125 7.671875,0.8125 7.671875,0.65625 v -5.328125 c -0.398437,-0.132813 -0.746094,-0.34375 -1.046875,-0.625 -0.292969,-0.28125 -0.527344,-0.613281 -0.703125,-1 -0.167969,-0.382813 -0.25,-0.785156 -0.25,-1.203125 0,-0.832031 0.289063,-1.539062 0.875,-2.125 0.59375,-0.582031 1.300781,-0.875 2.125,-0.875 0.832031,0 1.539063,0.292969 2.125,0.875 0.582031,0.585938 0.875,1.292969 0.875,2.125 z m -3,-2.34375 c -0.1875,0 -0.351563,0.070312 -0.484375,0.203125 -0.125,0.125 -0.1875,0.28125 -0.1875,0.46875 0,0.1875 0.0625,0.34375 0.1875,0.46875 0.132812,0.125 0.296875,0.1875 0.484375,0.1875 0.1875,0 0.34375,-0.0625 0.46875,-0.1875 0.125,-0.125 0.1875,-0.28125 0.1875,-0.46875 C 9.328125,-9.296875 9.300781,-9.40625 9.25,-9.5 9.195312,-9.601562 9.117188,-9.6875 9.015625,-9.75 8.910156,-9.8125 8.796875,-9.84375 8.671875,-9.84375 Z m 0,0"
           id="path892" />
      </g>
    </g>
  </g>
</svg>
